<svg t="1668246503156" class="icon" viewBox="0 0 1024 1024" version="1.1" xmlns="http://www.w3.org/2000/svg" p-id="6332" width="16" height="16"><path d="M853.7 345.6L614.4 106.4c-5.3-5.3-12.4-8.2-19.9-8.2H173.1c-7.8 0-14.1 6.3-14.1 14.1v801.4c0 7.8 6.3 14.1 14.1 14.1H848c7.8 0 14.1-6.3 14.1-14.1V365.5c-0.1-7.4-3.1-14.6-8.4-19.9z m-52.9 514.6H220.2V165.7h376.4v204h204.2v490.5z" p-id="6333" fill="#8a8a8a"></path><path d="M687 446.6l-58.6 268.5h-68.3L518.6 543c-2.4-8.9-4.1-19.1-4.9-30.5-0.8 13-2.4 23.2-4.9 30.5l-43.9 172.1h-70.8l-58.6-268.5h62.2L428.3 626c0.8 4.1 1.6 11.8 2.4 23.2 0-2.4 0.4 0.4 1.2 8.5h1.2c0.8-9.8 2.4-20.3 4.9-31.7l41.5-179.4h64.7l43.9 181.8c0 1.6 0.4 4.1 1.2 7.3 1.6 9 2.4 16.3 2.4 22h1.2c1.6-12.2 2.8-22.4 3.7-30.5L626 446.6h61z" p-id="6334" fill="#8a8a8a"></path></svg>